<?xml version="1.0" encoding="utf-8"?>
<svg version="1.1" xmlns:xlink="http://www.w3.org/1999/xlink" width="20px" height="36px" xmlns="http://www.w3.org/2000/svg">
  <g transform="matrix(1 0 0 1 -509 -989 )">
    <path d="M 19.5625 26.37421875  C 21.055555555555557 22.04296875  18.548611111111107 17.599218750000002  14.527777777777777 16.4109375  L 7.027777777777777 14.1890625  C 6.159722222222222 13.9359375  5.555555555555555 13.11328125  5.555555555555555 12.19921875  C 5.555555555555555 11.053125  6.472222222222222 10.125  7.604166666666666 10.125  L 12.208333333333334 10.125  C 13.055555555555555 10.125  13.88888888888889 10.38515625  14.583333333333332 10.86328125  C 15.006944444444443 11.151562499999999  15.57638888888889 11.081249999999999  15.9375 10.72265625  L 18.354166666666668 8.33203125  C 18.847222222222225 7.846875  18.77777777777778 7.03828125  18.229166666666668 6.609375  C 16.52777777777778 5.2593749999999995  14.402777777777779 4.50703125  12.222222222222223 4.5  L 12.222222222222223 1.125  C 12.222222222222223 0.50625  11.722222222222223 0  11.11111111111111 0  L 8.88888888888889 0  C 8.277777777777779 0  7.777777777777778 0.50625  7.777777777777778 1.125  L 7.777777777777778 4.5  L 7.604166666666666 4.5  C 3.1805555555555554 4.5  -0.37500000000000006 8.34609375  0.034722222222222224 12.909374999999999  C 0.3263888888888889 16.150781249999998  2.7708333333333335 18.787499999999998  5.854166666666667 19.701562499999998  L 12.972222222222223 21.810937499999998  C 13.840277777777779 22.07109375  14.444444444444445 22.88671875  14.444444444444445 23.80078125  C 14.444444444444445 24.946875000000002  13.527777777777779 25.875  12.395833333333332 25.875  L 7.791666666666667 25.875  C 6.944444444444445 25.875  6.111111111111112 25.614843750000002  5.416666666666666 25.13671875  C 4.993055555555556 24.8484375  4.423611111111112 24.91875  4.0625 25.27734375  L 1.6458333333333335 27.66796875  C 1.152777777777778 28.153125  1.2222222222222223 28.96171875  1.7708333333333337 29.390625  C 3.4722222222222223 30.740624999999998  5.597222222222222 31.49296875  7.777777777777778 31.5  L 7.777777777777778 34.875  C 7.777777777777778 35.49375  8.277777777777779 36  8.88888888888889 36  L 11.11111111111111 36  C 11.722222222222223 36  12.222222222222223 35.49375  12.222222222222223 34.875  L 12.222222222222223 31.485937500000002  C 15.458333333333334 31.422656250000003  18.493055555555557 29.474999999999998  19.5625 26.37421875  Z " fill-rule="nonzero" fill="#ffffff" stroke="none" transform="matrix(1 0 0 1 509 989 )" />
  </g>
</svg>