<?xml version="1.0" encoding="utf-8"?>
<svg version="1.1" xmlns:xlink="http://www.w3.org/1999/xlink" width="30px" height="40px" xmlns="http://www.w3.org/2000/svg">
  <g transform="matrix(1 0 0 1 -824 -987 )">
    <path d="M 6.428571428571428 10  C 6.428571428571428 15.5234375  10.265625000000002 20  15 20  C 19.734375 20  23.57142857142857 15.5234375  23.57142857142857 10  C 23.57142857142857 4.476562500000001  19.734375 0  15 0  C 10.265625000000002 0  6.428571428571428 4.4765625  6.428571428571428 10  Z M 30 33  C 30 27.203125  25.96875 22.5  21.000000000000004 22.5  L 19.88169642857143 22.5  C 18.39508928571429 23.296875  16.74107142857143 23.75  15.000000000000004 23.75  C 13.258928571428573 23.75  11.611607142857144 23.296875  10.118303571428573 22.5  L 9.000000000000004 22.5  C 4.03125 22.5  0 27.203125  0 33  L 0 36.25  C 0 38.3203125  1.439732142857143 40  3.214285714285714 40  L 26.78571428571429 40  C 28.560267857142858 40  30 38.3203125  30 36.25  L 30 33  Z " fill-rule="nonzero" fill="#ffffff" stroke="none" transform="matrix(1 0 0 1 824 987 )" />
  </g>
</svg>