<?xml version="1.0" encoding="utf-8"?>
<svg version="1.1" xmlns:xlink="http://www.w3.org/1999/xlink" width="24px" height="24px" xmlns="http://www.w3.org/2000/svg">
  <g transform="matrix(1 0 0 1 -788 -1678 )">
    <path d="M 22.67142857142857 0  C 23.40535714285714 0  24 0.5946428571428573  24 1.323214285714286  L 24 22.67142857142857  C 24 23.40535714285714  23.40535714285714 23.994642857142857  22.676785714285714 23.994642857142857  L 16.558928571428574 23.994642857142857  L 16.558928571428574 14.705357142857142  L 19.676785714285714 14.705357142857142  L 20.142857142857142 11.083928571428572  L 16.55357142857143 11.083928571428572  L 16.55357142857143 8.769642857142856  C 16.55357142857143 7.719642857142857  16.84285714285714 7.007142857142856  18.348214285714285 7.007142857142856  L 20.26607142857143 7.007142857142856  L 20.26607142857143 3.766071428571428  C 19.933928571428574 3.723214285714285  18.798214285714288 3.6214285714285706  17.46964285714286 3.6214285714285706  C 14.705357142857142 3.6214285714285706  12.808928571428572 5.30892857142857  12.808928571428572 8.410714285714285  L 12.808928571428572 11.083928571428572  L 9.680357142857144 11.083928571428572  L 9.680357142857144 14.705357142857142  L 12.808928571428572 14.705357142857142  L 12.808928571428572 24  L 1.3232142857142857 24  C 0.5946428571428571 24  0 23.40535714285714  0 22.676785714285714  L 0 1.323214285714286  C 0 0.5946428571428573  0.5946428571428571 0  1.3232142857142857 0  L 22.67142857142857 0  Z " fill-rule="nonzero" fill="#837d88" stroke="none" transform="matrix(1 0 0 1 788 1678 )" />
  </g>
</svg>